<svg xmlns="http://www.w3.org/2000/svg" viewBox="0 0 900 1200" width="1000" height="1400">
    <!-- 背景 -->
    <rect width="900" height="1200" fill="#ffffff"/>

    <!-- 标题 -->
    <text x="450" y="50" font-family="Arial, sans-serif" font-size="24" text-anchor="middle" font-weight="bold" fill="#333333">学习岛中小学教培系统技术选型</text>

    <!-- 后端框架比较 -->
    <rect x="50" y="80" width="800" height="40" fill="#4472C4" rx="5" ry="5"/>
    <text x="450" y="105" font-family="Arial, sans-serif" font-size="18" text-anchor="middle" fill="white" font-weight="bold">后端框架比较</text>

    <!-- 表头 -->
    <rect x="50" y="120" width="200" height="30" fill="#D9E1F2" stroke="#B4C7E7" stroke-width="1"/>
    <rect x="250" y="120" width="220" height="30" fill="#D9E1F2" stroke="#B4C7E7" stroke-width="1"/>
    <rect x="470" y="120" width="180" height="30" fill="#D9E1F2" stroke="#B4C7E7" stroke-width="1"/>
    <rect x="650" y="120" width="200" height="30" fill="#D9E1F2" stroke="#B4C7E7" stroke-width="1"/>

    <text x="150" y="140" font-family="Arial, sans-serif" font-size="14" text-anchor="middle" font-weight="bold" fill="#333333">技术选项</text>
    <text x="360" y="140" font-family="Arial, sans-serif" font-size="14" text-anchor="middle" font-weight="bold" fill="#333333">优势</text>
    <text x="560" y="140" font-family="Arial, sans-serif" font-size="14" text-anchor="middle" font-weight="bold" fill="#333333">劣势</text>
    <text x="750" y="140" font-family="Arial, sans-serif" font-size="14" text-anchor="middle" font-weight="bold" fill="#333333">适用场景</text>

    <!-- Spring Boot -->
    <rect x="50" y="150" width="200" height="80" fill="#E8EFF9" stroke="#B4C7E7" stroke-width="1"/>
    <rect x="250" y="150" width="220" height="80" fill="white" stroke="#B4C7E7" stroke-width="1"/>
    <rect x="470" y="150" width="180" height="80" fill="white" stroke="#B4C7E7" stroke-width="1"/>
    <rect x="650" y="150" width="200" height="80" fill="white" stroke="#B4C7E7" stroke-width="1"/>

    <text x="150" y="180" font-family="Arial, sans-serif" font-size="14" text-anchor="middle" font-weight="bold" fill="#4472C4">Spring Boot</text>
    <text x="150" y="200" font-family="Arial, sans-serif" font-size="12" text-anchor="middle" fill="#333333">(当前选择)</text>

    <text x="260" y="170" font-family="Arial, sans-serif" font-size="12" fill="#333333">• 开发速度快</text>
    <text x="260" y="185" font-family="Arial, sans-serif" font-size="12" fill="#333333">• 自动配置简化开发</text>
    <text x="260" y="200" font-family="Arial, sans-serif" font-size="12" fill="#333333">• 丰富的生态系统</text>
    <text x="260" y="215" font-family="Arial, sans-serif" font-size="12" fill="#333333">• 大量现成组件</text>

    <text x="480" y="170" font-family="Arial, sans-serif" font-size="12" fill="#333333">• 相对较重</text>
    <text x="480" y="185" font-family="Arial, sans-serif" font-size="12" fill="#333333">• 内存占用较大</text>

    <text x="660" y="180" font-family="Arial, sans-serif" font-size="12" fill="#333333">企业级应用、中大型项目</text>

    <!-- Spring MVC -->
    <rect x="50" y="230" width="200" height="60" fill="white" stroke="#B4C7E7" stroke-width="1"/>
    <rect x="250" y="230" width="220" height="60" fill="white" stroke="#B4C7E7" stroke-width="1"/>
    <rect x="470" y="230" width="180" height="60" fill="white" stroke="#B4C7E7" stroke-width="1"/>
    <rect x="650" y="230" width="200" height="60" fill="white" stroke="#B4C7E7" stroke-width="1"/>

    <text x="150" y="260" font-family="Arial, sans-serif" font-size="14" text-anchor="middle" fill="#333333">Spring MVC</text>

    <text x="260" y="250" font-family="Arial, sans-serif" font-size="12" fill="#333333">• 更加轻量</text>
    <text x="260" y="265" font-family="Arial, sans-serif" font-size="12" fill="#333333">• 更细粒度控制</text>

    <text x="480" y="250" font-family="Arial, sans-serif" font-size="12" fill="#333333">• 配置复杂</text>
    <text x="480" y="265" font-family="Arial, sans-serif" font-size="12" fill="#333333">• 开发速度慢</text>

    <text x="660" y="260" font-family="Arial, sans-serif" font-size="12" fill="#333333">需要细粒度控制的项目</text>

    <!-- Node.js/Express -->
    <rect x="50" y="290" width="200" height="60" fill="white" stroke="#B4C7E7" stroke-width="1"/>
    <rect x="250" y="290" width="220" height="60" fill="white" stroke="#B4C7E7" stroke-width="1"/>
    <rect x="470" y="290" width="180" height="60" fill="white" stroke="#B4C7E7" stroke-width="1"/>
    <rect x="650" y="290" width="200" height="60" fill="white" stroke="#B4C7E7" stroke-width="1"/>

    <text x="150" y="320" font-family="Arial, sans-serif" font-size="14" text-anchor="middle" fill="#333333">Node.js/Express</text>

    <text x="260" y="310" font-family="Arial, sans-serif" font-size="12" fill="#333333">• JavaScript全栈一致性</text>
    <text x="260" y="325" font-family="Arial, sans-serif" font-size="12" fill="#333333">• 异步非阻塞</text>

    <text x="480" y="310" font-family="Arial, sans-serif" font-size="12" fill="#333333">• 生态不如Spring成熟</text>
    <text x="480" y="325" font-family="Arial, sans-serif" font-size="12" fill="#333333">• 企业级支持较弱</text>

    <text x="660" y="320" font-family="Arial, sans-serif" font-size="12" fill="#333333">轻量级API、实时应用</text>

    <!-- 数据库比较 -->
    <rect x="50" y="380" width="800" height="40" fill="#4472C4" rx="5" ry="5"/>
    <text x="450" y="405" font-family="Arial, sans-serif" font-size="18" text-anchor="middle" fill="white" font-weight="bold">数据库比较</text>

    <!-- 表头 -->
    <rect x="50" y="420" width="200" height="30" fill="#D9E1F2" stroke="#B4C7E7" stroke-width="1"/>
    <rect x="250" y="420" width="220" height="30" fill="#D9E1F2" stroke="#B4C7E7" stroke-width="1"/>
    <rect x="470" y="420" width="180" height="30" fill="#D9E1F2" stroke="#B4C7E7" stroke-width="1"/>
    <rect x="650" y="420" width="200" height="30" fill="#D9E1F2" stroke="#B4C7E7" stroke-width="1"/>

    <text x="150" y="440" font-family="Arial, sans-serif" font-size="14" text-anchor="middle" font-weight="bold" fill="#333333">技术选项</text>
    <text x="360" y="440" font-family="Arial, sans-serif" font-size="14" text-anchor="middle" font-weight="bold" fill="#333333">优势</text>
    <text x="560" y="440" font-family="Arial, sans-serif" font-size="14" text-anchor="middle" font-weight="bold" fill="#333333">劣势</text>
    <text x="750" y="440" font-family="Arial, sans-serif" font-size="14" text-anchor="middle" font-weight="bold" fill="#333333">适用场景</text>

    <!-- PostgreSQL -->
    <rect x="50" y="450" width="200" height="80" fill="#E8EFF9" stroke="#B4C7E7" stroke-width="1"/>
    <rect x="250" y="450" width="220" height="80" fill="white" stroke="#B4C7E7" stroke-width="1"/>
    <rect x="470" y="450" width="180" height="80" fill="white" stroke="#B4C7E7" stroke-width="1"/>
    <rect x="650" y="450" width="200" height="80" fill="white" stroke="#B4C7E7" stroke-width="1"/>

    <text x="150" y="480" font-family="Arial, sans-serif" font-size="14" text-anchor="middle" font-weight="bold" fill="#4472C4">PostgreSQL</text>
    <text x="150" y="500" font-family="Arial, sans-serif" font-size="12" text-anchor="middle" fill="#333333">(当前选择)</text>

    <text x="260" y="470" font-family="Arial, sans-serif" font-size="12" fill="#333333">• 功能强大</text>
    <text x="260" y="485" font-family="Arial, sans-serif" font-size="12" fill="#333333">• 支持复杂SQL和JSON</text>
    <text x="260" y="500" font-family="Arial, sans-serif" font-size="12" fill="#333333">• 优秀的并发性能</text>
    <text x="260" y="515" font-family="Arial, sans-serif" font-size="12" fill="#333333">• 开源免费</text>

    <text x="480" y="470" font-family="Arial, sans-serif" font-size="12" fill="#333333">• 配置相对复杂</text>
    <text x="480" y="485" font-family="Arial, sans-serif" font-size="12" fill="#333333">• 资源消耗较高</text>

    <text x="660" y="480" font-family="Arial, sans-serif" font-size="12" fill="#333333">复杂数据结构、大数据量应用</text>

    <!-- MySQL -->
    <rect x="50" y="530" width="200" height="60" fill="white" stroke="#B4C7E7" stroke-width="1"/>
    <rect x="250" y="530" width="220" height="60" fill="white" stroke="#B4C7E7" stroke-width="1"/>
    <rect x="470" y="530" width="180" height="60" fill="white" stroke="#B4C7E7" stroke-width="1"/>
    <rect x="650" y="530" width="200" height="60" fill="white" stroke="#B4C7E7" stroke-width="1"/>

    <text x="150" y="560" font-family="Arial, sans-serif" font-size="14" text-anchor="middle" fill="#333333">MySQL</text>

    <text x="260" y="550" font-family="Arial, sans-serif" font-size="12" fill="#333333">• 使用广泛</text>
    <text x="260" y="565" font-family="Arial, sans-serif" font-size="12" fill="#333333">• 配置简单</text>

    <text x="480" y="550" font-family="Arial, sans-serif" font-size="12" fill="#333333">• 复杂查询性能较差</text>
    <text x="480" y="565" font-family="Arial, sans-serif" font-size="12" fill="#333333">• 某些高级功能缺失</text>

    <text x="660" y="560" font-family="Arial, sans-serif" font-size="12" fill="#333333">简单CRUD应用</text>

    <!-- MongoDB -->
    <rect x="50" y="590" width="200" height="60" fill="white" stroke="#B4C7E7" stroke-width="1"/>
    <rect x="250" y="590" width="220" height="60" fill="white" stroke="#B4C7E7" stroke-width="1"/>
    <rect x="470" y="590" width="180" height="60" fill="white" stroke="#B4C7E7" stroke-width="1"/>
    <rect x="650" y="590" width="200" height="60" fill="white" stroke="#B4C7E7" stroke-width="1"/>

    <text x="150" y="620" font-family="Arial, sans-serif" font-size="14" text-anchor="middle" fill="#333333">MongoDB</text>

    <text x="260" y="610" font-family="Arial, sans-serif" font-size="12" fill="#333333">• 灵活的文档存储</text>
    <text x="260" y="625" font-family="Arial, sans-serif" font-size="12" fill="#333333">• 无需预定义结构</text>

    <text x="480" y="610" font-family="Arial, sans-serif" font-size="12" fill="#333333">• 事务支持有限</text>
    <text x="480" y="625" font-family="Arial, sans-serif" font-size="12" fill="#333333">• 连接查询复杂</text>

    <text x="660" y="620" font-family="Arial, sans-serif" font-size="12" fill="#333333">数据结构变化频繁的应用</text>

    <!-- ORM框架比较 -->
    <rect x="50" y="680" width="800" height="40" fill="#4472C4" rx="5" ry="5"/>
    <text x="450" y="705" font-family="Arial, sans-serif" font-size="18" text-anchor="middle" fill="white" font-weight="bold">ORM框架比较</text>

    <!-- 表头 -->
    <rect x="50" y="720" width="200" height="30" fill="#D9E1F2" stroke="#B4C7E7" stroke-width="1"/>
    <rect x="250" y="720" width="220" height="30" fill="#D9E1F2" stroke="#B4C7E7" stroke-width="1"/>
    <rect x="470" y="720" width="180" height="30" fill="#D9E1F2" stroke="#B4C7E7" stroke-width="1"/>
    <rect x="650" y="720" width="200" height="30" fill="#D9E1F2" stroke="#B4C7E7" stroke-width="1"/>

    <text x="150" y="740" font-family="Arial, sans-serif" font-size="14" text-anchor="middle" font-weight="bold" fill="#333333">技术选项</text>
    <text x="360" y="740" font-family="Arial, sans-serif" font-size="14" text-anchor="middle" font-weight="bold" fill="#333333">优势</text>
    <text x="560" y="740" font-family="Arial, sans-serif" font-size="14" text-anchor="middle" font-weight="bold" fill="#333333">劣势</text>
    <text x="750" y="740" font-family="Arial, sans-serif" font-size="14" text-anchor="middle" font-weight="bold" fill="#333333">适用场景</text>

    <!-- MyBatis -->
    <rect x="50" y="750" width="200" height="80" fill="#E8EFF9" stroke="#B4C7E7" stroke-width="1"/>
    <rect x="250" y="750" width="220" height="80" fill="white" stroke="#B4C7E7" stroke-width="1"/>
    <rect x="470" y="750" width="180" height="80" fill="white" stroke="#B4C7E7" stroke-width="1"/>
    <rect x="650" y="750" width="200" height="80" fill="white" stroke="#B4C7E7" stroke-width="1"/>

    <text x="150" y="780" font-family="Arial, sans-serif" font-size="14" text-anchor="middle" font-weight="bold" fill="#4472C4">MyBatis</text>
    <text x="150" y="800" font-family="Arial, sans-serif" font-size="12" text-anchor="middle" fill="#333333">(当前选择)</text>

    <text x="260" y="770" font-family="Arial, sans-serif" font-size="12" fill="#333333">• SQL掌控度高</text>
    <text x="260" y="785" font-family="Arial, sans-serif" font-size="12" fill="#333333">• 性能优秀</text>
    <text x="260" y="800" font-family="Arial, sans-serif" font-size="12" fill="#333333">• 学习曲线平缓</text>

    <text x="480" y="770" font-family="Arial, sans-serif" font-size="12" fill="#333333">• 需要手写SQL</text>
    <text x="480" y="785" font-family="Arial, sans-serif" font-size="12" fill="#333333">• 代码量较大</text>

    <text x="660" y="780" font-family="Arial, sans-serif" font-size="12" fill="#333333">需要优化SQL的场景、复杂查询</text>

    <!-- Hibernate/JPA -->
    <rect x="50" y="830" width="200" height="60" fill="white" stroke="#B4C7E7" stroke-width="1"/>
    <rect x="250" y="830" width="220" height="60" fill="white" stroke="#B4C7E7" stroke-width="1"/>
    <rect x="470" y="830" width="180" height="60" fill="white" stroke="#B4C7E7" stroke-width="1"/>
    <rect x="650" y="830" width="200" height="60" fill="white" stroke="#B4C7E7" stroke-width="1"/>

    <text x="150" y="860" font-family="Arial, sans-serif" font-size="14" text-anchor="middle" fill="#333333">Hibernate/JPA</text>

    <text x="260" y="850" font-family="Arial, sans-serif" font-size="12" fill="#333333">• 自动生成SQL</text>
    <text x="260" y="865" font-family="Arial, sans-serif" font-size="12" fill="#333333">• 减少重复代码</text>

    <text x="480" y="850" font-family="Arial, sans-serif" font-size="12" fill="#333333">• 性能可能受影响</text>
    <text x="480" y="865" font-family="Arial, sans-serif" font-size="12" fill="#333333">• 复杂查询难优化</text>

    <text x="660" y="860" font-family="Arial, sans-serif" font-size="12" fill="#333333">快速开发、简单CRUD</text>

    <!-- 前端框架比较 -->
    <rect x="50" y="920" width="800" height="40" fill="#4472C4" rx="5" ry="5"/>
    <text x="450" y="945" font-family="Arial, sans-serif" font-size="18" text-anchor="middle" fill="white" font-weight="bold">前端框架比较</text>

    <!-- 表头 -->
    <rect x="50" y="960" width="200" height="30" fill="#D9E1F2" stroke="#B4C7E7" stroke-width="1"/>
    <rect x="250" y="960" width="220" height="30" fill="#D9E1F2" stroke="#B4C7E7" stroke-width="1"/>
    <rect x="470" y="960" width="180" height="30" fill="#D9E1F2" stroke="#B4C7E7" stroke-width="1"/>
    <rect x="650" y="960" width="200" height="30" fill="#D9E1F2" stroke="#B4C7E7" stroke-width="1"/>

    <text x="150" y="980" font-family="Arial, sans-serif" font-size="14" text-anchor="middle" font-weight="bold" fill="#333333">技术选项</text>
    <text x="360" y="980" font-family="Arial, sans-serif" font-size="14" text-anchor="middle" font-weight="bold" fill="#333333">优势</text>
    <text x="560" y="980" font-family="Arial, sans-serif" font-size="14" text-anchor="middle" font-weight="bold" fill="#333333">劣势</text>
    <text x="750" y="980" font-family="Arial, sans-serif" font-size="14" text-anchor="middle" font-weight="bold" fill="#333333">适用场景</text>

    <!-- 微信小程序 -->
    <rect x="50" y="990" width="200" height="80" fill="#E8EFF9" stroke="#B4C7E7" stroke-width="1"/>
    <rect x="250" y="990" width="220" height="80" fill="white" stroke="#B4C7E7" stroke-width="1"/>
    <rect x="470" y="990" width="180" height="80" fill="white" stroke="#B4C7E7" stroke-width="1"/>
    <rect x="650" y="990" width="200" height="80" fill="white" stroke="#B4C7E7" stroke-width="1"/>

    <text x="150" y="1020" font-family="Arial, sans-serif" font-size="14" text-anchor="middle" font-weight="bold" fill="#4472C4">微信小程序</text>
    <text x="150" y="1040" font-family="Arial, sans-serif" font-size="12" text-anchor="middle" fill="#333333">(学生端)</text>

    <text x="260" y="1010" font-family="Arial, sans-serif" font-size="12" fill="#333333">• 无需安装</text>
    <text x="260" y="1025" font-family="Arial, sans-serif" font-size="12" fill="#333333">• 用户触达容易</text>
    <text x="260" y="1040" font-family="Arial, sans-serif" font-size="12" fill="#333333">• 微信生态支持</text>

    <text x="480" y="1010" font-family="Arial, sans-serif" font-size="12" fill="#333333">• 受微信平台限制</text>
    <text x="480" y="1025" font-family="Arial, sans-serif" font-size="12" fill="#333333">• UI定制性有限</text>
    <text x="660" y="1020" font-family="Arial, sans-serif" font-size="12" fill="#333333">面向学生的轻量应用</text>
    <!-- Vue.js -->
    <rect x="50" y="1070" width="200" height="80" fill="#E8EFF9" stroke="#B4C7E7" stroke-width="1"/>
    <rect x="250" y="1070" width="220" height="80" fill="white" stroke="#B4C7E7" stroke-width="1"/>
    <rect x="470" y="1070" width="180" height="80" fill="white" stroke="#B4C7E7" stroke-width="1"/>
    <rect x="650" y="1070" width="200" height="80" fill="white" stroke="#B4C7E7" stroke-width="1"/>
    <text x="150" y="1100" font-family="Arial, sans-serif" font-size="14" text-anchor="middle" font-weight="bold" fill="#4472C4">Vue.js</text>
    <text x="150" y="1120" font-family="Arial, sans-serif" font-size="12" text-anchor="middle" fill="#333333">(管理端)</text>
    <text x="260" y="1090" font-family="Arial, sans-serif" font-size="12" fill="#333333">• 上手简单</text>
    <text x="260" y="1105" font-family="Arial, sans-serif" font-size="12" fill="#333333">• 性能优秀</text>
    <text x="260" y="1120" font-family="Arial, sans-serif" font-size="12" fill="#333333">• 组件化开发</text>
    <text x="480" y="1100" font-family="Arial, sans-serif" font-size="12" fill="#333333">• 大型应用架构挑战</text>
    <text x="660" y="1105" font-family="Arial, sans-serif" font-size="12" fill="#333333">管理后台、交互式界面</text>
</svg>